<?xml version="1.0" encoding="UTF-8"?>
<svg id="Layer_1" xmlns="http://www.w3.org/2000/svg" version="1.1" viewBox="0 0 500 700" fill="#fde68a">
  <polygon points="461.54 0 480.77 22.58 500 45.16 500 0 461.54 0"/>
  <polygon points="480.77 338.71 461.54 361.29 480.77 383.86 500 361.29 480.77 338.71"/>
  <polygon points="480.77 429.03 500 406.45 480.77 383.86 461.54 406.45 480.77 429.03"/>
  <polygon points="461.54 45.16 442.31 22.58 423.08 0 384.61 0 403.85 22.58 423.08 45.16 442.31 67.74 461.54 90.32 480.77 112.9 500 135.49 500 90.32 480.77 67.74 461.54 45.16"/>
  <polygon points="461.54 135.49 442.31 112.9 423.08 90.32 403.85 67.74 384.61 45.16 365.39 22.58 346.15 0 307.7 0 326.92 22.58 346.15 45.16 365.39 67.74 384.61 90.32 403.85 112.9 423.08 135.49 442.31 158.06 461.54 180.64 480.77 203.23 500 225.8 500 180.64 480.77 158.06 461.54 135.49"/>
  <path d="M480.77,293.55l-19.23-22.59-19.23-22.58-19.23-22.59-19.23-22.58-19.23-22.59-19.23-22.58-19.23-22.58-19.23-22.59-19.23-22.58-19.23-22.59-19.23-22.58-19.23-22.59-19.23,22.59-19.23,22.58-19.23,22.59-19.23,22.58-19.23,22.59-19.23,22.58-19.23,22.58-19.23,22.59-19.23,22.58-19.23,22.59-19.23,22.58-19.23,22.59,19.23,22.58,19.23,22.59,19.23,22.58,19.23,22.59,19.23,22.58,19.23,22.58,19.23,22.59,19.23,22.58,19.23,22.59,19.23,22.58,19.23,22.59,19.23,22.58,19.23-22.58,19.23-22.59,19.23-22.58,19.23-22.59,19.23-22.58,19.23-22.59,19.23-22.58,19.23-22.58,19.23-22.59,19.23-22.58,19.23-22.59,19.23-22.58ZM423.08,316.13l-19.23,22.59-19.23,22.58-19.23,22.58-19.23,22.59-19.23,22.58-19.23,22.59-19.23,22.58-19.23,22.59-19.23,22.58-19.23-22.58-19.23-22.59-19.23-22.58-19.23-22.59-19.23-22.58-19.23-22.59-19.23-22.58-19.23-22.58-19.23-22.59-19.23-22.58,19.23-22.59,19.23-22.58,19.23-22.59,19.23-22.58,19.23-22.59,19.23-22.58,19.23-22.58,19.23-22.59,19.23-22.58,19.23-22.59,19.23,22.59,19.23,22.58,19.23,22.59,19.23,22.58,19.23,22.58,19.23,22.59,19.23,22.58,19.23,22.59,19.23,22.58,19.23,22.59-19.23,22.58Z"/>
  <polygon points="423.08 406.45 403.85 429.03 423.08 451.61 442.31 429.03 423.08 406.45"/>
  <polygon points="423.08 496.77 442.31 474.19 423.08 451.61 403.85 474.19 423.08 496.77"/>
  <path d="M365.39,248.39l-19.23-22.59-19.23-22.58-19.23-22.59-19.23-22.58-19.23-22.58-19.23-22.59-19.23,22.59-19.23,22.58-19.23,22.58-19.23,22.59-19.23,22.58-19.23,22.59-19.23,22.58-19.23,22.59,19.23,22.58,19.23,22.59,19.23,22.58,19.23,22.58,19.23,22.59,19.23,22.58,19.23,22.59,19.23,22.58,19.23-22.58,19.23-22.59,19.23-22.58,19.23-22.58,19.23-22.59,19.23-22.58,19.23-22.59,19.23-22.58-19.23-22.59-19.23-22.58ZM346.15,316.13l-19.23,22.59-19.23,22.58-19.23,22.58-19.23,22.59-19.23,22.58-19.23-22.58-19.23-22.59-19.23-22.58-19.23-22.58-19.23-22.59-19.23-22.58,19.23-22.59,19.23-22.58,19.23-22.59,19.23-22.58,19.23-22.59,19.23-22.58,19.23,22.58,19.23,22.59,19.23,22.58,19.23,22.59,19.23,22.58,19.23,22.59-19.23,22.58Z"/>
  <polygon points="365.39 474.19 346.15 496.77 365.39 519.35 384.61 496.77 365.39 474.19"/>
  <polygon points="365.39 564.51 384.61 541.94 365.39 519.35 346.15 541.94 365.39 564.51"/>
  <polygon points="307.7 541.94 288.46 564.51 307.7 587.1 326.92 564.51 307.7 541.94"/>
  <polygon points="307.7 632.25 326.92 609.68 307.7 587.1 288.46 609.68 307.7 632.25"/>
  <path d="M288.46,248.39l-19.23-22.59-19.23-22.58-19.23,22.58-19.23,22.59-19.23,22.58-19.23,22.59,19.23,22.58,19.23,22.59,19.23,22.58,19.23,22.58,19.23-22.58,19.23-22.58,19.23-22.59,19.23-22.58-19.23-22.59-19.23-22.58ZM269.23,316.13l-19.23,22.59-19.23-22.59-19.23-22.58,19.23-22.59,19.23-22.58,19.23,22.58,19.23,22.59-19.23,22.58Z"/>
  <polygon points="250 609.68 230.77 632.25 250 654.84 269.23 632.25 250 609.68"/>
  <polygon points="250 700 269.23 677.41 250 654.84 230.77 677.41 250 700"/>
  <polygon points="192.31 541.94 173.08 564.51 192.31 587.1 211.54 564.51 192.31 541.94"/>
  <polygon points="192.31 632.25 211.54 609.68 192.31 587.1 173.08 609.68 192.31 632.25"/>
  <polygon points="134.62 474.19 115.39 496.77 134.62 519.35 153.85 496.77 134.62 474.19"/>
  <polygon points="134.62 564.51 153.85 541.94 134.62 519.35 115.39 541.94 134.62 564.51"/>
  <polygon points="76.92 406.45 57.7 429.03 76.92 451.61 96.16 429.03 76.92 406.45"/>
  <polygon points="76.92 496.77 96.16 474.19 76.92 451.61 57.7 474.19 76.92 496.77"/>
  <polygon points="38.46 0 0 0 0 45.16 19.23 22.58 38.46 0"/>
  <polygon points="38.46 90.32 57.7 67.74 76.92 45.16 96.16 22.58 115.39 0 76.92 0 57.7 22.58 38.46 45.16 19.23 67.74 0 90.32 0 135.49 19.23 112.9 38.46 90.32"/>
  <polygon points="38.46 180.64 57.7 158.06 76.92 135.49 96.16 112.9 115.39 90.32 134.62 67.74 153.85 45.16 173.08 22.58 192.31 0 153.85 0 134.62 22.58 115.39 45.16 96.16 67.74 76.92 90.32 57.7 112.9 38.46 135.49 19.23 158.06 0 180.64 0 225.8 19.23 203.23 38.46 180.64"/>
  <polygon points="19.23 338.71 0 361.29 19.23 383.86 38.46 361.29 19.23 338.71"/>
  <polygon points="19.23 429.03 38.46 406.45 19.23 383.86 0 406.45 19.23 429.03"/>
</svg>