<?xml version="1.0" encoding="UTF-8"?>
<svg xmlns="http://www.w3.org/2000/svg" version="1.1" xmlns:xlink="http://www.w3.org/1999/xlink" viewBox="0 0 1600 600">
  <!-- Generator: Adobe Illustrator 29.5.1, SVG Export Plug-In . SVG Version: 2.1.0 Build 141)  -->
  <defs>
    <style>
      .st0 {
        opacity: .39;
      }

      .st0, .st1, .st2, .st3, .st4, .st5, .st6, .st7 {
        fill: #fff;
      }

      .st1 {
        opacity: .05;
      }

      .st2 {
        opacity: .44;
      }

      .st3 {
        opacity: .41;
      }

      .st8 {
        fill: none;
      }

      .st4 {
        opacity: .37;
      }

      .st9 {
        isolation: isolate;
      }

      .st10 {
        fill: #b3b3b3;
        mix-blend-mode: soft-light;
      }

      .st5 {
        stroke: #000;
        stroke-miterlimit: 10;
      }

      .st5, .st6 {
        opacity: .42;
      }

      .st7 {
        opacity: .46;
      }

      .st11 {
        clip-path: url(#clippath);
      }
    </style>
    <clipPath id="clippath">
      <rect class="st8" width="1600" height="600"/>
    </clipPath>
  </defs>
  <g class="st9">
    <g id="Layer_1">
      <g class="st11">
        <path class="st4" d="M608.03-12.81H-8.29v86.16l182.33,259.45c14.91,21.21,44.45,26.37,65.66,11.46L615.67,80.05c21.21-14.91,26.37-44.45,11.46-65.66l-19.11-27.19Z"/>
        <polygon class="st7" points="193.81 -12.81 660.7 628.23 677.82 628.23 381.8 -12.81 193.81 -12.81"/>
        <polygon class="st7" points="1608.23 252.81 1173.4 -12.81 1095.19 -12.81 1608.23 460.6 1608.23 252.81"/>
        <polygon class="st4" points="625.74 -12.81 478.07 396.29 965.39 -12.81 625.74 -12.81"/>
        <polygon class="st0" points="1608.23 576.4 763.6 91.7 763.6 628.23 1608.23 628.23 1608.23 576.4"/>
        <polygon class="st5" points="-1015.39 2356.23 -994.87 2368 -994.87 2356.23 -1015.39 2356.23"/>
        <polygon class="st0" points="1264.94 -12.81 859.05 299.55 1191.54 298.21 1466.98 -12.81 1264.94 -12.81"/>
        <polygon class="st6" points="1608.23 -12.81 1227.76 -12.81 632.26 210.77 1267.15 210.77 1608.23 82.72 1608.23 -12.81"/>
        <path class="st2" d="M1121.53-12.81h-343.21l170.57,326.74c5.89,11.28,17.56,14.02,25.94,6.1l199.28-188.53c8.38-7.93,10.41-23.64,4.53-34.91l-57.11-109.4Z"/>
        <polygon class="st1" points="416.6 -12.81 416.6 382.19 845.33 628.23 1519.32 628.23 1519.32 -12.81 416.6 -12.81"/>
        <polygon class="st3" points="1608.23 -12.81 1415.08 -12.81 1314.91 318.69 1608.23 249.97 1608.23 -12.81"/>
        <polygon class="st3" points="-8.29 216.83 -8.29 514.97 57.1 628.23 421.29 628.23 658.8 216.83 -8.29 216.83"/>
        <polygon class="st3" points="1057.06 628.23 575.67 115.35 420.68 628.23 1057.06 628.23"/>
        <polygon class="st3" points="1608.23 275.06 1338.03 -12.81 1328.3 -12.81 1134.58 628.23 1608.23 628.23 1608.23 275.06"/>
        <path class="st4" d="M273.99-12.81H-8.29v554.09c15.45,9.03,35.46,8.89,50.99-2.02l375.97-264.21c21.21-14.91,26.37-44.45,11.46-65.66L273.99-12.81Z"/>
        <polygon class="st7" points="-8.29 -12.81 -8.29 175.19 321.68 628.23 390.77 628.23 94.75 -12.81 -8.29 -12.81"/>
        <polygon class="st7" points="1608.23 568.15 744.99 40.83 1381.56 628.23 1608.23 628.23 1608.23 568.15"/>
        <polygon class="st4" points="499.13 -12.81 281.07 591.29 1000.68 -12.81 499.13 -12.81"/>
        <polygon class="st0" points="1161.73 628.23 566.6 286.7 566.6 628.23 1161.73 628.23"/>
        <polygon class="st0" points="1321.33 -12.81 662.05 494.55 994.54 493.21 1442.67 -12.81 1321.33 -12.81"/>
        <polygon class="st6" points="1608.23 -12.81 1550.15 -12.81 435.26 405.77 1070.15 405.77 1608.23 203.75 1608.23 -12.81"/>
        <path class="st2" d="M822.73-12.81h-343.21l272.37,521.74c5.89,11.28,17.56,14.02,25.94,6.1l199.28-188.53c8.38-7.93,10.41-23.64,4.53-34.91L822.73-12.81Z"/>
        <polygon class="st1" points="219.6 -12.81 219.6 577.19 308.53 628.23 1322.32 628.23 1322.32 -5.49 1309.57 -12.81 219.6 -12.81"/>
        <polygon class="st3" points="1608.23 -12.81 1277.01 -12.81 1117.91 513.69 1608.23 398.81 1608.23 -12.81"/>
        <polygon class="st3" points="-8.29 411.83 -8.29 628.23 336.87 628.23 461.8 411.83 -8.29 411.83"/>
        <polygon class="st3" points="677.03 628.23 378.67 310.35 282.61 628.23 677.03 628.23"/>
        <polygon class="st3" points="1559.68 628.23 1133.67 174.35 996.51 628.23 1559.68 628.23"/>
        <rect class="st10" width="1600" height="600"/>
      </g>
    </g>
  </g>
</svg>