<?xml version="1.0" encoding="UTF-8"?>
<svg id="Layer_1" xmlns="http://www.w3.org/2000/svg" version="1.1" viewBox="0 0 6094 3540">
  <!-- Generator: Adobe Illustrator 29.5.1, SVG Export Plug-In . SVG Version: 2.1.0 Build 141)  -->
  <defs>
    <style>
      .st0 {
        fill: #158099;
      }

      .st1 {
        fill: #093652;
      }

      .st2 {
        fill: #0f7296;
      }

      .st3 {
        fill: #0d4664;
      }

      .st4 {
        fill: #156c82;
      }

      .st5 {
        fill: #17687e;
      }

      .st6 {
        fill: #176e85;
      }

      .st7 {
        fill: #1180a3;
      }

      .st8 {
        fill: #106386;
      }

      .st9 {
        fill: #1585a6;
      }

      .st10 {
        fill: #156c89;
      }

      .st11 {
        fill: #094468;
      }

      .st12 {
        fill: #0f4a67;
      }

      .st13 {
        fill: #1a859d;
      }

      .st14 {
        fill: #072a44;
      }

      .st15 {
        fill: #0d7299;
      }

      .st16 {
        fill: #115775;
      }

      .st17 {
        fill: #0a4d6f;
      }

      .st18 {
        fill: #072d49;
      }

      .st19 {
        fill: #06263e;
      }

      .st20 {
        fill: #15647f;
      }

      .st21 {
        fill: #116a8c;
      }

      .st22 {
        fill: #124353;
      }

      .st23 {
        fill: #093e5f;
      }

      .st24 {
        fill: #166175;
      }

      .st25 {
        fill: #0a4467;
      }

      .st26 {
        fill: #0e5578;
      }

      .st27 {
        fill: #0a3a57;
      }

      .st28 {
        fill: #14687f;
      }

      .st29 {
        fill: #145b6e;
      }

      .st30 {
        fill: #0b4768;
      }

      .st31 {
        fill: #114e63;
      }

      .st32 {
        fill: #0e4d6e;
      }

      .st33 {
        fill: #0d4b6c;
      }

      .st34 {
        fill: #16697f;
      }

      .st35 {
        fill: #137e9a;
      }

      .st36 {
        fill: #0a4d72;
      }

      .st37 {
        fill: #084c71;
      }

      .st38 {
        fill: #073e60;
      }

      .st39 {
        fill: #135d7e;
      }

      .st40 {
        fill: #16627b;
      }

      .st41 {
        fill: #135a6e;
      }

      .st42 {
        fill: #084569;
      }

      .st43 {
        fill: #135a75;
      }

      .st44 {
        fill: #0d6a90;
      }

      .st45 {
        fill: #107ca0;
      }

      .st46 {
        fill: #127a9a;
      }

      .st47 {
        fill: #156b89;
      }

      .st48 {
        fill: #134a5b;
      }

      .st49 {
        fill: #0c6088;
      }

      .st50 {
        fill: #166b81;
      }

      .st51 {
        fill: #166073;
      }

      .st52 {
        fill: #073f62;
      }

      .st53 {
        fill: #084366;
      }

      .st54 {
        fill: #115777;
      }

      .st55 {
        fill: #0e6a91;
      }

      .st56 {
        fill: #09486d;
      }

      .st57 {
        fill: #156886;
      }

      .st58 {
        fill: #0e5c81;
      }

      .st59 {
        fill: #14748d;
      }

      .st60 {
        fill: #17697e;
      }

      .st61 {
        fill: #125a6e;
      }

      .st62 {
        fill: #126b8b;
      }

      .st63 {
        fill: #083e61;
      }

      .st64 {
        fill: #136378;
      }

      .st65 {
        fill: #134d60;
      }

      .st66 {
        fill: #116386;
      }

      .st67 {
        fill: #1586a7;
      }

      .st68 {
        fill: #145977;
      }

      .st69 {
        fill: #09567b;
      }

      .st70 {
        fill: #1490ae;
      }

      .st71 {
        fill: #0a5981;
      }

      .st72 {
        fill: #125d70;
      }

      .st73 {
        fill: #0d4867;
      }

      .st74 {
        fill: #082d49;
      }

      .st75 {
        fill: #144c60;
      }

      .st76 {
        fill: #13657a;
      }

      .st77 {
        fill: #17758c;
      }

      .st78 {
        fill: #1183a5;
      }

      .st79 {
        fill: #0f7094;
      }

      .st80 {
        fill: #0e4a67;
      }

      .st81 {
        fill: #073555;
      }

      .st82 {
        fill: #114e5f;
      }

      .st83 {
        fill: #083857;
      }

      .st84 {
        fill: #137790;
      }

      .st85 {
        fill: #177a91;
      }

      .st86 {
        fill: #127297;
      }

      .st87 {
        fill: #0e7194;
      }

      .st88 {
        fill: #0e769b;
      }

      .st89 {
        fill: #0f7499;
      }

      .st90 {
        fill: #176376;
      }

      .st91 {
        fill: #0c6a90;
      }

      .st92 {
        fill: #0a3e5f;
      }

      .st93 {
        fill: #117093;
      }

      .st94 {
        fill: #16738a;
      }

      .st95 {
        fill: #13687d;
      }

      .st96 {
        fill: #12495e;
      }

      .st97 {
        fill: #12677d;
      }

      .st98 {
        fill: #0e4968;
      }

      .st99 {
        fill: #0a557c;
      }

      .st100 {
        fill: #072b45;
      }

      .st101 {
        fill: #0a5377;
      }

      .st102 {
        fill: #14586f;
      }

      .st103 {
        fill: #125874;
      }

      .st104 {
        fill: #0d5c7f;
      }

      .st105 {
        fill: #16586c;
      }

      .st106 {
        fill: #134757;
      }

      .st107 {
        fill: #0c4466;
      }

      .st108 {
        fill: #0f5e80;
      }

      .st109 {
        fill: #145060;
      }

      .st110 {
        fill: #147d9a;
      }

      .st111 {
        fill: #0c6b92;
      }

      .st112 {
        fill: #167a98;
      }

      .st113 {
        fill: #135565;
      }

      .st114 {
        fill: #116b8d;
      }

      .st115 {
        fill: #126d8e;
      }

      .st116 {
        fill: #115b78;
      }

      .st117 {
        fill: #072d47;
      }

      .st118 {
        fill: #0b5074;
      }

      .st119 {
        fill: #073a5a;
      }

      .st120 {
        fill: #0e5b80;
      }

      .st121 {
        fill: #166f85;
      }

      .st122 {
        fill: #094f75;
      }

      .st123 {
        fill: #0c5376;
      }

      .st124 {
        fill: #145367;
      }

      .st125 {
        fill: #136b8c;
      }

      .st126 {
        fill: #11799c;
      }

      .st127 {
        fill: #0a4669;
      }

      .st128 {
        fill: #127ca1;
      }

      .st129 {
        fill: #082f49;
      }

      .st130 {
        fill: #16637f;
      }

      .st131 {
        fill: #0c5a7e;
      }

      .st132 {
        fill: #0b6289;
      }

      .st133 {
        fill: #146d86;
      }

      .st134 {
        fill: #157188;
      }

      .st135 {
        fill: #063150;
      }

      .st136 {
        fill: #0a4c6f;
      }

      .st137 {
        fill: #13526f;
      }

      .st138 {
        fill: #084263;
      }

      .st139 {
        fill: #0d587a;
      }

      .st140 {
        fill: #0c5a81;
      }

      .st141 {
        fill: #107b9f;
      }

      .st142 {
        fill: #083350;
      }

      .st143 {
        fill: #126d85;
      }

      .st144 {
        fill: #107594;
      }

      .st145 {
        fill: #135a6c;
      }

      .st146 {
        fill: #0e5a7d;
      }

      .st147 {
        fill: #15809b;
      }

      .st148 {
        fill: #0a3a58;
      }

      .st149 {
        fill: #135a70;
      }

      .st150 {
        fill: #156b87;
      }

      .st151 {
        fill: #17819a;
      }

      .st152 {
        fill: #127994;
      }

      .st153 {
        fill: #073452;
      }

      .st154 {
        fill: #095278;
      }

      .st155 {
        fill: #0d6d92;
      }

      .st156 {
        fill: #0b4566;
      }

      .st157 {
        fill: #13485c;
      }

      .st158 {
        fill: #135e76;
      }

      .st159 {
        fill: #148baa;
      }

      .st160 {
        fill: #07314e;
      }

      .st161 {
        fill: #166274;
      }

      .st162 {
        fill: #1890ad;
      }

      .st163 {
        fill: #156f84;
      }

      .st164 {
        fill: #1485a4;
      }

      .st165 {
        fill: #0b5c84;
      }

      .st166 {
        fill: #1785a1;
      }

      .st167 {
        fill: #093f60;
      }

      .st168 {
        fill: #11445b;
      }

      .st169 {
        fill: #0b547a;
      }

      .st170 {
        fill: #167e9a;
      }

      .st171 {
        fill: #116a8e;
      }

      .st172 {
        fill: #0b6288;
      }

      .st173 {
        fill: #0b4364;
      }

      .st174 {
        fill: #197187;
      }

      .st175 {
        fill: #126484;
      }

      .st176 {
        fill: #0d6388;
      }

      .st177 {
        fill: #11698d;
      }

      .st178 {
        fill: #0c5277;
      }

      .st179 {
        fill: #1686a4;
      }

      .st180 {
        fill: #0a3c5c;
      }

      .st181 {
        fill: #175a6f;
      }

      .st182 {
        fill: #0a3f5d;
      }

      .st183 {
        fill: #1180a4;
      }

      .st184 {
        fill: #116079;
      }

      .st185 {
        fill: #135d79;
      }

      .st186 {
        fill: #0c4d6f;
      }

      .st187 {
        fill: #083c5e;
      }

      .st188 {
        fill: #176b85;
      }

      .st189 {
        fill: #0e4261;
      }

      .st190 {
        fill: #073a5b;
      }

      .st191 {
        fill: #165265;
      }

      .st192 {
        fill: #063352;
      }

      .st193 {
        fill: #16637c;
      }

      .st194 {
        fill: #107a9c;
      }

      .st195 {
        fill: #0d6b92;
      }

      .st196 {
        fill: #0d4363;
      }

      .st197 {
        fill: #137e9b;
      }

      .st198 {
        fill: #187289;
      }

      .st199 {
        fill: #0c4160;
      }

      .st200 {
        fill: #14677d;
      }

      .st201 {
        fill: #135063;
      }

      .st202 {
        fill: #12698b;
      }

      .st203 {
        fill: #107695;
      }

      .st204 {
        fill: #0f7598;
      }

      .st205 {
        fill: #14677e;
      }

      .st206 {
        fill: #0e4260;
      }

      .st207 {
        fill: #073c5e;
      }

      .st208 {
        fill: #093f62;
      }

      .st209 {
        fill: #0c5f84;
      }

      .st210 {
        fill: #0d5a80;
      }

      .st211 {
        fill: #0d6990;
      }

      .st212 {
        fill: #1a768d;
      }

      .st213 {
        fill: #094567;
      }

      .st214 {
        fill: #094970;
      }

      .st215 {
        fill: #0b6389;
      }

      .st216 {
        fill: #13667b;
      }

      .st217 {
        fill: #136479;
      }

      .st218 {
        fill: #126f88;
      }

      .st219 {
        fill: #062942;
      }

      .st220 {
        fill: #1686a1;
      }
    </style>
  </defs>
  <rect class="st19" x="5687.73" y="3304" width="406.27" height="236"/>
  <rect class="st18" x="5281.47" y="3304" width="406.27" height="236"/>
  <rect class="st142" x="4875.2" y="3304" width="406.27" height="236"/>
  <rect class="st153" x="4468.93" y="3304" width="406.27" height="236"/>
  <rect class="st81" x="4062.67" y="3304" width="406.27" height="236"/>
  <rect class="st190" x="3656.4" y="3304" width="406.27" height="236"/>
  <rect class="st53" x="3250.13" y="3304" width="406.27" height="236"/>
  <rect class="st135" x="2843.87" y="3304" width="406.27" height="236"/>
  <rect class="st192" x="2437.6" y="3304" width="406.27" height="236"/>
  <rect class="st187" x="2031.33" y="3304" width="406.27" height="236"/>
  <rect class="st167" x="1625.07" y="3304" width="406.27" height="236"/>
  <rect class="st23" x="1218.8" y="3304" width="406.27" height="236"/>
  <rect class="st160" x="812.53" y="3304" width="406.27" height="236"/>
  <rect class="st74" x="406.27" y="3304" width="406.27" height="236"/>
  <rect class="st100" y="3304" width="406.27" height="236"/>
  <rect class="st14" x="5687.73" y="3068" width="406.27" height="236"/>
  <rect class="st117" x="5281.47" y="3068" width="406.27" height="236"/>
  <rect class="st92" x="4875.2" y="3068" width="406.27" height="236"/>
  <rect class="st138" x="4468.93" y="3068" width="406.27" height="236"/>
  <rect class="st81" x="4062.67" y="3068" width="406.27" height="236"/>
  <rect class="st38" x="3656.4" y="3068" width="406.27" height="236"/>
  <rect class="st42" x="3250.13" y="3068" width="406.27" height="236"/>
  <rect class="st136" x="2843.87" y="3068" width="406.27" height="236"/>
  <rect class="st63" x="2437.6" y="3068" width="406.27" height="236"/>
  <rect class="st207" x="2031.33" y="3068" width="406.27" height="236"/>
  <rect class="st119" x="1625.07" y="3068" width="406.27" height="236"/>
  <rect class="st208" x="1218.8" y="3068" width="406.27" height="236"/>
  <rect class="st83" x="812.53" y="3068" width="406.27" height="236"/>
  <rect class="st1" x="406.27" y="3068" width="406.27" height="236"/>
  <rect class="st148" y="3068" width="406.27" height="236"/>
  <rect class="st219" x="5687.73" y="2832" width="406.27" height="236"/>
  <rect class="st180" x="5281.47" y="2832" width="406.27" height="236"/>
  <rect class="st156" x="4875.2" y="2832" width="406.27" height="236"/>
  <rect class="st17" x="4468.93" y="2832" width="406.27" height="236"/>
  <rect class="st127" x="4062.67" y="2832" width="406.27" height="236"/>
  <rect class="st101" x="3656.4" y="2832" width="406.27" height="236"/>
  <rect class="st11" x="3250.13" y="2832" width="406.27" height="236"/>
  <rect class="st37" x="2843.87" y="2832" width="406.27" height="236"/>
  <rect class="st52" x="2437.6" y="2832" width="406.27" height="236"/>
  <rect class="st56" x="2031.33" y="2832" width="406.27" height="236"/>
  <rect class="st36" x="1625.07" y="2832" width="406.27" height="236"/>
  <rect class="st213" x="1218.8" y="2832" width="406.27" height="236"/>
  <rect class="st173" x="812.53" y="2832" width="406.27" height="236"/>
  <rect class="st182" x="406.27" y="2832" width="406.27" height="236"/>
  <rect class="st27" y="2832" width="406.27" height="236"/>
  <rect class="st129" x="5687.73" y="2596" width="406.27" height="236"/>
  <rect class="st107" x="5281.47" y="2596" width="406.27" height="236"/>
  <rect class="st30" x="4875.2" y="2596" width="406.27" height="236"/>
  <rect class="st139" x="4468.93" y="2596" width="406.27" height="236"/>
  <rect class="st118" x="4062.67" y="2596" width="406.27" height="236"/>
  <rect class="st132" x="3656.4" y="2596" width="406.27" height="236"/>
  <rect class="st172" x="3250.13" y="2596" width="406.27" height="236"/>
  <rect class="st122" x="2843.87" y="2596" width="406.27" height="236"/>
  <rect class="st69" x="2437.6" y="2596" width="406.27" height="236"/>
  <rect class="st214" x="2031.33" y="2596" width="406.27" height="236"/>
  <rect class="st140" x="1625.07" y="2596" width="406.27" height="236"/>
  <rect class="st123" x="1218.8" y="2596" width="406.27" height="236"/>
  <rect class="st25" x="812.53" y="2596" width="406.27" height="236"/>
  <rect class="st33" x="406.27" y="2596" width="406.27" height="236"/>
  <rect class="st182" y="2596" width="406.27" height="236"/>
  <rect class="st199" x="5687.73" y="2360" width="406.27" height="236"/>
  <rect class="st196" x="5281.47" y="2360" width="406.27" height="236"/>
  <rect class="st146" x="4875.2" y="2360" width="406.27" height="236"/>
  <rect class="st123" x="4468.93" y="2360" width="406.27" height="236"/>
  <rect class="st131" x="4062.67" y="2360" width="406.27" height="236"/>
  <rect class="st44" x="3656.4" y="2360" width="406.27" height="236"/>
  <rect class="st71" x="3250.13" y="2360" width="406.27" height="236"/>
  <rect class="st99" x="2843.87" y="2360" width="406.27" height="236"/>
  <rect class="st165" x="2437.6" y="2360" width="406.27" height="236"/>
  <rect class="st154" x="2031.33" y="2360" width="406.27" height="236"/>
  <rect class="st169" x="1625.07" y="2360" width="406.27" height="236"/>
  <rect class="st178" x="1218.8" y="2360" width="406.27" height="236"/>
  <rect class="st186" x="812.53" y="2360" width="406.27" height="236"/>
  <rect class="st32" x="406.27" y="2360" width="406.27" height="236"/>
  <rect class="st98" y="2360" width="406.27" height="236"/>
  <rect class="st189" x="5687.73" y="2124" width="406.27" height="236"/>
  <rect class="st73" x="5281.47" y="2124" width="406.27" height="236"/>
  <rect class="st26" x="4875.2" y="2124" width="406.27" height="236"/>
  <rect class="st58" x="4468.93" y="2124" width="406.27" height="236"/>
  <rect class="st209" x="4062.67" y="2124" width="406.27" height="236"/>
  <rect class="st91" x="3656.4" y="2124" width="406.27" height="236"/>
  <rect class="st155" x="3250.13" y="2124" width="406.27" height="236"/>
  <rect class="st215" x="2843.87" y="2124" width="406.27" height="236"/>
  <rect class="st49" x="2437.6" y="2124" width="406.27" height="236"/>
  <rect class="st55" x="2031.33" y="2124" width="406.27" height="236"/>
  <rect class="st79" x="1625.07" y="2124" width="406.27" height="236"/>
  <rect class="st210" x="1218.8" y="2124" width="406.27" height="236"/>
  <rect class="st171" x="812.53" y="2124" width="406.27" height="236"/>
  <rect class="st108" x="406.27" y="2124" width="406.27" height="236"/>
  <rect class="st3" y="2124" width="406.27" height="236"/>
  <rect class="st206" x="5687.73" y="1888" width="406.27" height="236"/>
  <rect class="st54" x="5281.47" y="1888" width="406.27" height="236"/>
  <rect class="st66" x="4875.2" y="1888" width="406.27" height="236"/>
  <rect class="st120" x="4468.93" y="1888" width="406.27" height="236"/>
  <rect class="st104" x="4062.67" y="1888" width="406.27" height="236"/>
  <rect class="st204" x="3656.4" y="1888" width="406.27" height="236"/>
  <rect class="st15" x="3250.13" y="1888" width="406.27" height="236"/>
  <rect class="st111" x="2843.87" y="1888" width="406.27" height="236"/>
  <rect class="st195" x="2437.6" y="1888" width="406.27" height="236"/>
  <rect class="st211" x="2031.33" y="1888" width="406.27" height="236"/>
  <rect class="st7" x="1625.07" y="1888" width="406.27" height="236"/>
  <rect class="st86" x="1218.8" y="1888" width="406.27" height="236"/>
  <rect class="st177" x="812.53" y="1888" width="406.27" height="236"/>
  <rect class="st175" x="406.27" y="1888" width="406.27" height="236"/>
  <rect class="st80" y="1888" width="406.27" height="236"/>
  <rect class="st12" x="5687.73" y="1652" width="406.27" height="236"/>
  <rect class="st39" x="5281.47" y="1652" width="406.27" height="236"/>
  <rect class="st125" x="4875.2" y="1652" width="406.27" height="236"/>
  <rect class="st115" x="4468.93" y="1652" width="406.27" height="236"/>
  <rect class="st126" x="4062.67" y="1652" width="406.27" height="236"/>
  <rect class="st89" x="3656.4" y="1652" width="406.27" height="236"/>
  <rect class="st45" x="3250.13" y="1652" width="406.27" height="236"/>
  <rect class="st176" x="2843.87" y="1652" width="406.27" height="236"/>
  <rect class="st88" x="2437.6" y="1652" width="406.27" height="236"/>
  <rect class="st183" x="2031.33" y="1652" width="406.27" height="236"/>
  <rect class="st128" x="1625.07" y="1652" width="406.27" height="236"/>
  <rect class="st93" x="1218.8" y="1652" width="406.27" height="236"/>
  <rect class="st8" x="812.53" y="1652" width="406.27" height="236"/>
  <rect class="st116" x="406.27" y="1652" width="406.27" height="236"/>
  <rect class="st103" y="1652" width="406.27" height="236"/>
  <rect class="st137" x="5687.73" y="1416" width="406.27" height="236"/>
  <rect class="st16" x="5281.47" y="1416" width="406.27" height="236"/>
  <rect class="st57" x="4875.2" y="1416" width="406.27" height="236"/>
  <rect class="st114" x="4468.93" y="1416" width="406.27" height="236"/>
  <rect class="st67" x="4062.67" y="1416" width="406.27" height="236"/>
  <rect class="st203" x="3656.4" y="1416" width="406.27" height="236"/>
  <rect class="st141" x="3250.13" y="1416" width="406.27" height="236"/>
  <rect class="st194" x="2843.87" y="1416" width="406.27" height="236"/>
  <rect class="st2" x="2437.6" y="1416" width="406.27" height="236"/>
  <rect class="st78" x="2031.33" y="1416" width="406.27" height="236"/>
  <rect class="st9" x="1625.07" y="1416" width="406.27" height="236"/>
  <rect class="st202" x="1218.8" y="1416" width="406.27" height="236"/>
  <rect class="st112" x="812.53" y="1416" width="406.27" height="236"/>
  <rect class="st47" x="406.27" y="1416" width="406.27" height="236"/>
  <rect class="st43" y="1416" width="406.27" height="236"/>
  <rect class="st68" x="5687.73" y="1180" width="406.27" height="236"/>
  <rect class="st130" x="5281.47" y="1180" width="406.27" height="236"/>
  <rect class="st10" x="4875.2" y="1180" width="406.27" height="236"/>
  <rect class="st21" x="4468.93" y="1180" width="406.27" height="236"/>
  <rect class="st46" x="4062.67" y="1180" width="406.27" height="236"/>
  <rect class="st144" x="3656.4" y="1180" width="406.27" height="236"/>
  <rect class="st159" x="3250.13" y="1180" width="406.27" height="236"/>
  <rect class="st87" x="2843.87" y="1180" width="406.27" height="236"/>
  <rect class="st70" x="2437.6" y="1180" width="406.27" height="236"/>
  <rect class="st164" x="2031.33" y="1180" width="406.27" height="236"/>
  <rect class="st179" x="1625.07" y="1180" width="406.27" height="236"/>
  <rect class="st62" x="1218.8" y="1180" width="406.27" height="236"/>
  <rect class="st184" x="812.53" y="1180" width="406.27" height="236"/>
  <rect class="st185" x="406.27" y="1180" width="406.27" height="236"/>
  <rect class="st20" y="1180" width="406.27" height="236"/>
  <rect class="st168" x="5687.73" y="944" width="406.27" height="236"/>
  <rect class="st193" x="5281.47" y="944" width="406.27" height="236"/>
  <rect class="st188" x="4875.2" y="944" width="406.27" height="236"/>
  <rect class="st150" x="4468.93" y="944" width="406.27" height="236"/>
  <rect class="st170" x="4062.67" y="944" width="406.27" height="236"/>
  <rect class="st162" x="3656.4" y="944" width="406.27" height="236"/>
  <rect class="st35" x="3250.13" y="944" width="406.27" height="236"/>
  <rect class="st152" x="2843.87" y="944" width="406.27" height="236"/>
  <rect class="st197" x="2437.6" y="944" width="406.27" height="236"/>
  <rect class="st110" x="2031.33" y="944" width="406.27" height="236"/>
  <rect class="st166" x="1625.07" y="944" width="406.27" height="236"/>
  <rect class="st133" x="1218.8" y="944" width="406.27" height="236"/>
  <rect class="st28" x="812.53" y="944" width="406.27" height="236"/>
  <rect class="st158" x="406.27" y="944" width="406.27" height="236"/>
  <rect class="st40" y="944" width="406.27" height="236"/>
  <rect class="st96" x="5687.73" y="708" width="406.27" height="236"/>
  <rect class="st102" x="5281.47" y="708" width="406.27" height="236"/>
  <rect class="st5" x="4875.2" y="708" width="406.27" height="236"/>
  <rect class="st6" x="4468.93" y="708" width="406.27" height="236"/>
  <rect class="st13" x="4062.67" y="708" width="406.27" height="236"/>
  <rect class="st59" x="3656.4" y="708" width="406.27" height="236"/>
  <rect class="st220" x="3250.13" y="708" width="406.27" height="236"/>
  <rect class="st218" x="2843.87" y="708" width="406.27" height="236"/>
  <rect class="st147" x="2437.6" y="708" width="406.27" height="236"/>
  <rect class="st151" x="2031.33" y="708" width="406.27" height="236"/>
  <rect class="st0" x="1625.07" y="708" width="406.27" height="236"/>
  <rect class="st134" x="1218.8" y="708" width="406.27" height="236"/>
  <rect class="st205" x="812.53" y="708" width="406.27" height="236"/>
  <rect class="st149" x="406.27" y="708" width="406.27" height="236"/>
  <rect class="st31" y="708" width="406.27" height="236"/>
  <rect class="st75" x="5687.73" y="472" width="406.27" height="236"/>
  <rect class="st65" x="5281.47" y="472" width="406.27" height="236"/>
  <rect class="st212" x="4875.2" y="472" width="406.27" height="236"/>
  <rect class="st174" x="4468.93" y="472" width="406.27" height="236"/>
  <rect class="st34" x="4062.67" y="472" width="406.27" height="236"/>
  <rect class="st76" x="3656.4" y="472" width="406.27" height="236"/>
  <rect class="st143" x="3250.13" y="472" width="406.27" height="236"/>
  <rect class="st84" x="2843.87" y="472" width="406.27" height="236"/>
  <rect class="st97" x="2437.6" y="472" width="406.27" height="236"/>
  <rect class="st85" x="2031.33" y="472" width="406.27" height="236"/>
  <rect class="st94" x="1625.07" y="472" width="406.27" height="236"/>
  <rect class="st77" x="1218.8" y="472" width="406.27" height="236"/>
  <rect class="st198" x="812.53" y="472" width="406.27" height="236"/>
  <rect class="st29" x="406.27" y="472" width="406.27" height="236"/>
  <rect class="st105" y="472" width="406.27" height="236"/>
  <rect class="st191" x="5687.73" y="236" width="406.27" height="236"/>
  <rect class="st48" x="5281.47" y="236" width="406.27" height="236"/>
  <rect class="st90" x="4875.2" y="236" width="406.27" height="236"/>
  <rect class="st161" x="4468.93" y="236" width="406.27" height="236"/>
  <rect class="st72" x="4062.67" y="236" width="406.27" height="236"/>
  <rect class="st217" x="3656.4" y="236" width="406.27" height="236"/>
  <rect class="st4" x="3250.13" y="236" width="406.27" height="236"/>
  <rect class="st95" x="2843.87" y="236" width="406.27" height="236"/>
  <rect class="st216" x="2437.6" y="236" width="406.27" height="236"/>
  <rect class="st163" x="2031.33" y="236" width="406.27" height="236"/>
  <rect class="st121" x="1625.07" y="236" width="406.27" height="236"/>
  <rect class="st50" x="1218.8" y="236" width="406.27" height="236"/>
  <rect class="st24" x="812.53" y="236" width="406.27" height="236"/>
  <rect class="st201" x="406.27" y="236" width="406.27" height="236"/>
  <rect class="st181" y="236" width="406.27" height="236"/>
  <rect class="st22" x="5687.73" width="406.27" height="236"/>
  <rect class="st106" x="5281.47" width="406.27" height="236"/>
  <rect class="st109" x="4875.2" width="406.27" height="236"/>
  <rect class="st113" x="4468.93" width="406.27" height="236"/>
  <rect class="st51" x="4062.67" width="406.27" height="236"/>
  <rect class="st64" x="3656.4" width="406.27" height="236"/>
  <rect class="st145" x="3250.13" width="406.27" height="236"/>
  <rect class="st61" x="2843.87" width="406.27" height="236"/>
  <rect class="st121" x="2437.6" width="406.27" height="236"/>
  <rect class="st200" x="2031.33" width="406.27" height="236"/>
  <rect class="st41" x="1625.07" width="406.27" height="236"/>
  <rect class="st82" x="1218.8" width="406.27" height="236"/>
  <rect class="st60" x="812.53" width="406.27" height="236"/>
  <rect class="st124" x="406.27" width="406.27" height="236"/>
  <rect class="st157" width="406.27" height="236"/>
</svg>