<?xml version="1.0" encoding="UTF-8"?>
<svg id="Layer_1" xmlns="http://www.w3.org/2000/svg" version="1.1" viewBox="0 0 90 400">
  <!-- Generator: Adobe Illustrator 29.5.1, SVG Export Plug-In . SVG Version: 2.1.0 Build 141)  -->
  <defs>
    <style>
      .st0 {
        fill: #fff;
        isolation: isolate;
        opacity: 0.1;
      }
    </style>
  </defs>
  <path class="st0" d="M56.25,19.78l-1.87-1.82-1.88-1.82-1.87,1.82-1.87,1.82-1.87-1.82-1.87-1.82-1.88,1.82-1.87,1.82-1.87-1.82-1.87-1.82-1.87,1.82-1.88,1.82,1.88,1.82,1.87,1.82-1.87,1.82-1.88,1.82,1.88,1.82,1.87,1.82-1.87,1.82-1.88,1.82,1.88,1.82,1.87,1.82,1.87-1.82,1.87-1.82,1.87,1.82,1.88,1.82,1.87-1.82,1.87-1.82,1.87,1.82,1.87,1.82,1.88-1.82,1.87-1.82-1.87-1.82-1.88-1.82,1.88-1.82,1.87-1.82-1.87-1.82-1.88-1.82,1.88-1.82,1.87-1.82ZM46.88,28.88l-1.87,1.82-1.88-1.82-1.87-1.82,1.87-1.82,1.88-1.82,1.87,1.82,1.87,1.82-1.87,1.82ZM86.25,19.78l-1.87-1.82-1.88-1.82-1.87,1.82-1.87,1.82-1.87-1.82-1.87-1.82-1.88,1.82-1.87,1.82-1.87-1.82-1.87-1.82-1.87,1.82-1.88,1.82,1.88,1.82,1.87,1.82-1.87,1.82-1.88,1.82,1.88,1.82,1.87,1.82-1.87,1.82-1.88,1.82,1.88,1.82,1.87,1.82,1.87-1.82,1.87-1.82,1.87,1.82,1.88,1.82,1.87-1.82,1.87-1.82,1.87,1.82,1.87,1.82,1.88-1.82,1.87-1.82-1.87-1.82-1.88-1.82,1.88-1.82,1.87-1.82-1.87-1.82-1.88-1.82,1.88-1.82,1.87-1.82ZM76.88,28.88l-1.87,1.82-1.88-1.82-1.87-1.82,1.87-1.82,1.88-1.82,1.87,1.82,1.87,1.82-1.87,1.82ZM90,5.22v3.64l-1.87,1.82-1.87,1.82-1.87-1.82-1.88-1.82-1.87,1.82-1.87,1.82-1.87-1.82-1.87-1.82-1.88,1.82-1.87,1.82-1.87-1.82-1.87-1.82-1.87,1.82-1.88,1.82-1.87-1.82-1.87-1.82-1.87,1.82-1.87,1.82-1.87-1.82-1.88-1.82-1.87,1.82-1.87,1.82-1.87-1.82-1.87-1.82-1.88,1.82-1.87,1.82-1.87-1.82-1.87-1.82-1.87,1.82-1.88,1.82-1.87-1.82-1.87-1.82-1.87,1.82-1.87,1.82-1.88-1.82-1.87-1.82-1.87,1.82-1.87,1.82-1.87-1.82-1.88-1.82-1.87,1.82-1.87,1.82-1.87-1.82-1.87-1.82-1.88,1.82-1.87,1.82-1.87-1.82-1.87-1.82v-3.64l1.87-1.82,1.87-1.82,1.87,1.82,1.88,1.82,1.87-1.82,1.87-1.82,1.87,1.82,1.87,1.82,1.88-1.82,1.87-1.82,1.87,1.82,1.87,1.82,1.87-1.82,1.88-1.82,1.87,1.82,1.87,1.82,1.87-1.82,1.87-1.82,1.88,1.82,1.87,1.82,1.87-1.82,1.87-1.82,1.87,1.82,1.88,1.82,1.87-1.82,1.87-1.82,1.87,1.82,1.87,1.82,1.88-1.82,1.87-1.82,1.87,1.82,1.87,1.82,1.87-1.82,1.87-1.82,1.88,1.82,1.87,1.82,1.87-1.82,1.87-1.82,1.87,1.82,1.88,1.82,1.87-1.82,1.87-1.82,1.87,1.82,1.87,1.82,1.88-1.82,1.87-1.82,1.87,1.82,1.87,1.82ZM41.25,78.03l-1.87,1.82,1.87,1.82,1.87,1.82-1.87,1.82-1.87,1.82-1.87,1.82-1.87,1.82-1.88,1.82-1.87,1.82-1.87,1.82-1.87,1.82-1.87,1.82-1.88,1.82-1.87,1.82-1.87-1.82-1.87-1.82-1.87-1.82-1.88-1.82-1.87-1.82-1.87-1.82-1.87-1.82-1.87-1.82-1.88-1.82-1.87-1.82-1.87-1.82,1.87-1.82,1.87-1.82-1.87-1.82-1.87-1.82,1.87-1.82,1.87-1.82,1.88,1.82,1.87,1.82,1.87-1.82,1.87-1.82,1.87,1.82,1.88,1.82,1.87,1.82,1.87,1.82,1.87,1.82,1.87-1.82,1.88-1.82,1.87-1.82,1.87-1.82,1.87-1.82,1.87,1.82,1.88,1.82,1.87-1.82,1.87-1.82,1.87,1.82,1.87,1.82-1.87,1.82ZM88.13,105.34l1.87,1.82v3.64l-1.87,1.82-1.87,1.82-1.87-1.82-1.88-1.82-1.87,1.82-1.87,1.82-1.87-1.82-1.87-1.82-1.88,1.82-1.87,1.82-1.87-1.82-1.87-1.82-1.87,1.82-1.88,1.82-1.87-1.82-1.87-1.82-1.87,1.82-1.87,1.82-1.87-1.82-1.88-1.82-1.87,1.82-1.87,1.82-1.87-1.82-1.87-1.82-1.88,1.82-1.87,1.82-1.87-1.82-1.87-1.82-1.87,1.82-1.88,1.82-1.87-1.82-1.87-1.82-1.87,1.82-1.87,1.82-1.88-1.82-1.87-1.82-1.87,1.82-1.87,1.82-1.87-1.82-1.88-1.82-1.87,1.82-1.87,1.82-1.87-1.82-1.87-1.82-1.88,1.82-1.87,1.82-1.87-1.82-1.87-1.82v-3.64l1.87-1.82,1.87-1.82,1.87,1.82,1.88,1.82,1.87-1.82,1.87-1.82,1.87,1.82,1.87,1.82,1.88-1.82,1.87-1.82,1.87,1.82,1.87,1.82,1.87-1.82,1.88-1.82,1.87,1.82,1.87,1.82,1.87-1.82,1.87-1.82,1.88,1.82,1.87,1.82,1.87-1.82,1.87-1.82,1.87,1.82,1.88,1.82,1.87-1.82,1.87-1.82,1.87,1.82,1.87,1.82,1.88-1.82,1.87-1.82,1.87,1.82,1.87,1.82,1.87-1.82,1.87-1.82,1.88,1.82,1.87,1.82,1.87-1.82,1.87-1.82,1.87,1.82,1.88,1.82,1.87-1.82,1.87-1.82,1.87,1.82,1.87,1.82,1.88-1.82,1.87-1.82,1.87,1.82ZM86.25,139.93l-1.88-1.82-1.88-1.82-1.88,1.82-1.88,1.82-1.88-1.82-1.86-1.8-1.88,1.8-1.88,1.82-1.88,1.82-1.88,1.82-1.88-1.82-1.88-1.82-1.88-1.82-1.88-1.82-1.88,1.82-1.88,1.82-1.86-1.82-1.88-1.82-1.88,1.82-1.88,1.82,1.88,1.82,1.88,1.82-1.88,1.82-1.88,1.82,1.88,1.82h.02l1.86,1.8,1.88,1.82,1.86,1.82-1.86,1.82-1.88,1.82-1.88,1.82-1.88,1.82,1.88,1.82,1.88,1.82-1.88,1.82-1.88,1.82,1.88,1.82,1.88,1.82,1.88-1.82,1.86-1.82,1.88,1.82,1.88,1.82,1.88-1.82,1.88-1.82,1.88-1.82,1.88-1.82,1.88,1.82,1.88,1.82,1.88,1.82,1.88,1.82,1.86-1.82,1.88-1.82,1.88,1.82,1.88,1.82,1.88-1.82,1.88-1.82-1.88-1.82-1.88-1.82,1.88-1.82,1.88-1.82-1.88-1.82-1.88-1.82-1.88-1.82-1.88-1.82,1.88-1.82,1.88-1.82,1.88-1.8h.02l1.86-1.82-1.88-1.82-1.88-1.82,1.88-1.82,1.88-1.82ZM76.88,149.03h-.02l-1.86,1.8-1.88,1.82-1.88,1.82,1.88,1.82,1.88,1.82,1.86,1.82,1.88,1.82-1.88,1.82-1.86,1.82-1.88-1.82-1.88-1.82-1.88-1.82-1.88-1.82-1.88,1.82-1.88,1.82-1.88,1.82-1.88,1.82-1.88-1.82-1.88-1.82,1.88-1.82,1.88-1.82,1.88-1.82,1.88-1.82-1.88-1.82-1.88-1.82-1.86-1.8h-.02l-1.88-1.82,1.88-1.82,1.88-1.82,1.88,1.82,1.88,1.82,1.88,1.82h.02l1.86,1.8,1.88-1.8h.02l1.86-1.82,1.88-1.82,1.88-1.82,1.86,1.82,1.88,1.82-1.86,1.82ZM86.25,78.03l-1.87,1.82,1.87,1.82,1.87,1.82-1.87,1.82-1.87,1.82-1.88,1.82-1.87,1.82-1.87,1.82-1.87,1.82-1.87,1.82-1.88,1.82-1.87,1.82-1.87,1.82-1.87,1.82-1.87-1.82-1.88-1.82-1.87-1.82-1.87-1.82-1.87-1.82-1.87-1.82-1.87-1.82-1.88-1.82-1.87-1.82-1.87-1.82-1.87-1.82,1.87-1.82,1.87-1.82-1.87-1.82-1.87-1.82,1.87-1.82,1.87-1.82,1.87,1.82,1.88,1.82,1.87-1.82,1.87-1.82,1.87,1.82,1.87,1.82,1.87,1.82,1.88,1.82,1.87,1.82,1.87-1.82,1.87-1.82,1.87-1.82,1.88-1.82,1.87-1.82,1.87,1.82,1.87,1.82,1.87-1.82,1.88-1.82,1.87,1.82,1.87,1.82-1.87,1.82ZM41.25,139.93l-1.88-1.82-1.88-1.82-1.88,1.82-1.88,1.82-1.88-1.82-1.88-1.82-1.86,1.82-1.88,1.82-1.88,1.82-1.88,1.82-1.88-1.82-1.88-1.82-1.88-1.82-1.88-1.82-1.88,1.82-1.88,1.82-1.88-1.82-1.86-1.8-1.88,1.8-1.88,1.82,1.88,1.82,1.88,1.82-1.88,1.82-1.88,1.82,1.88,1.82h.02l1.86,1.8,1.86,1.82,1.88,1.82-1.88,1.82-1.86,1.82-1.88,1.82-1.88,1.82,1.88,1.82,1.88,1.82-1.88,1.82-1.88,1.82,1.88,1.82,1.88,1.82,1.86-1.82,1.88-1.82,1.88,1.82,1.88,1.82,1.88-1.82,1.88-1.82,1.88-1.82,1.88-1.82,1.88,1.82,1.88,1.82,1.88,1.82,1.86,1.82,1.88-1.82,1.88-1.82,1.88,1.82,1.88,1.82,1.88-1.82,1.88-1.82-1.88-1.82-1.88-1.82,1.88-1.82,1.88-1.82-1.88-1.82-1.88-1.82-1.88-1.82-1.88-1.82,1.88-1.82,1.88-1.82,1.88-1.8h.02l1.86-1.82-1.88-1.82-1.88-1.82,1.88-1.82,1.88-1.82ZM31.89,149.03h-.02l-1.88,1.8-1.86,1.82-1.88,1.82,1.88,1.82,1.86,1.82,1.88,1.82,1.88,1.82-1.88,1.82-1.88,1.82-1.86-1.8v-.02l-1.88-1.82-1.88-1.82-1.88-1.82-1.88,1.82-1.88,1.82-1.88,1.82-1.88,1.82-1.88-1.82-1.88-1.82,1.88-1.82,1.88-1.82,1.88-1.82,1.88-1.82-1.88-1.82-1.88-1.82-1.86-1.8h-.02l-1.88-1.82,1.88-1.82,1.88-1.82,1.88,1.82,1.88,1.82,1.88,1.82h.02l1.86,1.8,1.88-1.8h.02l1.86-1.82,1.88-1.8v-.02l1.86-1.82,1.88,1.82,1.88,1.82-1.86,1.82ZM88.13,61.65l1.87,1.82v3.64l-1.87,1.82-1.87,1.82-1.87-1.82-1.88-1.82-1.87,1.82-1.87,1.82-1.87-1.82-1.87-1.82-1.88,1.82-1.87,1.82-1.87-1.82-1.87-1.82-1.87,1.82-1.88,1.82-1.87-1.82-1.87-1.82-1.87,1.82-1.87,1.82-1.87-1.82-1.88-1.82-1.87,1.82-1.87,1.82-1.87-1.82-1.87-1.82-1.88,1.82-1.87,1.82-1.87-1.82-1.87-1.82-1.87,1.82-1.88,1.82-1.87-1.82-1.87-1.82-1.87,1.82-1.87,1.82-1.88-1.82-1.87-1.82-1.87,1.82-1.87,1.82-1.87-1.82-1.88-1.82-1.87,1.82-1.87,1.82-1.87-1.82-1.87-1.82-1.88,1.82-1.87,1.82-1.87-1.82-1.87-1.82v-3.64l1.87-1.82,1.87-1.82,1.87,1.82,1.88,1.82,1.87-1.82,1.87-1.82,1.87,1.82,1.87,1.82,1.88-1.82,1.87-1.82,1.87,1.82,1.87,1.82,1.87-1.82,1.88-1.82,1.87,1.82,1.87,1.82,1.87-1.82,1.87-1.82,1.88,1.82,1.87,1.82,1.87-1.82,1.87-1.82,1.87,1.82,1.88,1.82,1.87-1.82,1.87-1.82,1.87,1.82,1.87,1.82,1.88-1.82,1.87-1.82,1.87,1.82,1.87,1.82,1.87-1.82,1.87-1.82,1.88,1.82,1.87,1.82,1.87-1.82,1.87-1.82,1.87,1.82,1.88,1.82,1.87-1.82,1.87-1.82,1.87,1.82,1.87,1.82,1.88-1.82,1.87-1.82,1.87,1.82ZM88.13,123.54l1.87,1.82v3.64l-1.87,1.82-1.87,1.82-1.87-1.82-1.88-1.82-1.87,1.82-1.87,1.82-1.87-1.82-1.87-1.82-1.88,1.82-1.87,1.82-1.87-1.82-1.87-1.82-1.87,1.82-1.88,1.82-1.87-1.82-1.87-1.82-1.87,1.82-1.87,1.82-1.87-1.82-1.88-1.82-1.87,1.82-1.87,1.82-1.87-1.82-1.87-1.82-1.88,1.82-1.87,1.82-1.87-1.82-1.87-1.82-1.87,1.82-1.88,1.82-1.87-1.82-1.87-1.82-1.87,1.82-1.87,1.82-1.88-1.82-1.87-1.82-1.87,1.82-1.87,1.82-1.87-1.82-1.88-1.82-1.87,1.82-1.87,1.82-1.87-1.82-1.87-1.82-1.88,1.82-1.87,1.82-1.87-1.82-1.87-1.82v-3.64l1.87-1.82,1.87-1.82,1.87,1.82,1.88,1.82,1.87-1.82,1.87-1.82,1.87,1.82,1.87,1.82,1.88-1.82,1.87-1.82,1.87,1.82,1.87,1.82,1.87-1.82,1.88-1.82,1.87,1.82,1.87,1.82,1.87-1.82,1.87-1.82,1.88,1.82,1.87,1.82,1.87-1.82,1.87-1.82,1.87,1.82,1.88,1.82,1.87-1.82,1.87-1.82,1.87,1.82,1.87,1.82,1.88-1.82,1.87-1.82,1.87,1.82,1.87,1.82,1.87-1.82,1.87-1.82,1.88,1.82,1.87,1.82,1.87-1.82,1.87-1.82,1.87,1.82,1.88,1.82,1.87-1.82,1.87-1.82,1.87,1.82,1.87,1.82,1.88-1.82,1.87-1.82,1.87,1.82ZM26.25,19.78l-1.88-1.82-1.87-1.82-1.87,1.82-1.87,1.82-1.87-1.82-1.88-1.82-1.87,1.82-1.87,1.82-1.87-1.82-1.87-1.82-1.88,1.82-1.87,1.82,1.87,1.82,1.88,1.82-1.88,1.82-1.87,1.82,1.87,1.82,1.88,1.82-1.88,1.82-1.87,1.82,1.87,1.82,1.88,1.82,1.87-1.82,1.87-1.82,1.87,1.82,1.87,1.82,1.88-1.82,1.87-1.82,1.87,1.82,1.87,1.82,1.87-1.82,1.88-1.82-1.88-1.82-1.87-1.82,1.87-1.82,1.88-1.82-1.88-1.82-1.87-1.82,1.87-1.82,1.88-1.82ZM16.88,28.88l-1.88,1.82-1.87-1.82-1.87-1.82,1.87-1.82,1.87-1.82,1.88,1.82,1.87,1.82-1.87,1.82ZM88.13,43.45l1.87,1.82v3.64l-1.87,1.82-1.87,1.82-1.87-1.82-1.88-1.82-1.87,1.82-1.87,1.82-1.87-1.82-1.87-1.82-1.88,1.82-1.87,1.82-1.87-1.82-1.87-1.82-1.87,1.82-1.88,1.82-1.87-1.82-1.87-1.82-1.87,1.82-1.87,1.82-1.87-1.82-1.88-1.82-1.87,1.82-1.87,1.82-1.87-1.82-1.87-1.82-1.88,1.82-1.87,1.82-1.87-1.82-1.87-1.82-1.87,1.82-1.88,1.82-1.87-1.82-1.87-1.82-1.87,1.82-1.87,1.82-1.88-1.82-1.87-1.82-1.87,1.82-1.87,1.82-1.87-1.82-1.88-1.82-1.87,1.82-1.87,1.82-1.87-1.82-1.87-1.82-1.88,1.82-1.87,1.82-1.87-1.82-1.87-1.82v-3.64l1.87-1.82,1.87-1.82,1.87,1.82,1.88,1.82,1.87-1.82,1.87-1.82,1.87,1.82,1.87,1.82,1.88-1.82,1.87-1.82,1.87,1.82,1.87,1.82,1.87-1.82,1.88-1.82,1.87,1.82,1.87,1.82,1.87-1.82,1.87-1.82,1.88,1.82,1.87,1.82,1.87-1.82,1.87-1.82,1.87,1.82,1.88,1.82,1.87-1.82,1.87-1.82,1.87,1.82,1.87,1.82,1.88-1.82,1.87-1.82,1.87,1.82,1.87,1.82,1.87-1.82,1.87-1.82,1.88,1.82,1.87,1.82,1.87-1.82,1.87-1.82,1.87,1.82,1.88,1.82,1.87-1.82,1.87-1.82,1.87,1.82,1.87,1.82,1.88-1.82,1.87-1.82,1.87,1.82ZM88.14,196.37l1.86,1.8v3.65l-1.87,1.82-1.88,1.82-1.88-1.82-1.88-1.82-1.88,1.82-1.88,1.82-1.88-1.82-1.86-1.8-1.88,1.8-1.88,1.82-1.88-1.82-1.88-1.82-1.88,1.82-1.88,1.82-1.88-1.82-1.88-1.82-1.88,1.82-1.88,1.82-1.86-1.82-1.88-1.82-1.88,1.82-1.88,1.82-1.88-1.82-1.88-1.82-1.88,1.82-1.88,1.82-1.88-1.82-1.88-1.82-1.88,1.82-1.88,1.82-1.88-1.82-1.88-1.82-1.86,1.82-1.88,1.82-1.88-1.82-1.88-1.82-1.88,1.82-1.88,1.82-1.88-1.82-1.88-1.82-1.88,1.82-1.88,1.82-1.88-1.82-1.86-1.8-1.88,1.8-1.88,1.82-1.88-1.82L0,201.81h0s0-3.65,0-3.65h0s1.88-1.8,1.88-1.8h.02l1.86-1.82,1.88,1.82h.02l1.86,1.8,1.86-1.8h.02l1.86-1.82,1.88,1.82h.02l1.86,1.8,1.88-1.8h.02l1.86-1.82,1.88,1.82h.02l1.86,1.8,1.88-1.8h.02l1.86-1.82,1.88,1.82,1.86,1.8,1.88-1.8h.02l1.86-1.82,1.88,1.82h.02l1.86,1.8,1.88-1.8h.02l1.86-1.82,1.88,1.82h.02l1.86,1.8,1.88-1.8h.02l1.86-1.82,1.88,1.82h.02l1.86,1.8,1.88-1.8,1.86-1.82,1.88,1.82h.02l1.86,1.8,1.88-1.8h.02l1.86-1.82,1.88,1.82h.02l1.86,1.8,1.88-1.8h.02l1.86-1.82,1.88,1.82h.02l1.86,1.8,1.86-1.8h.02l1.86-1.82,1.88,1.82h.02l1.86,1.8,1.88-1.8h.02l1.86-1.82,1.88,1.82h.02ZM88.13,178.15l1.87,1.82v3.65l-1.87,1.82-1.88,1.82-1.88-1.82-1.88-1.82-1.88,1.82-1.88,1.82-1.88-1.82-1.86-1.8-1.88,1.8-1.88,1.82-1.88-1.82-1.88-1.82-1.88,1.82-1.88,1.82-1.88-1.82-1.88-1.82-1.88,1.82-1.88,1.82-1.86-1.82-1.88-1.82-1.88,1.82-1.88,1.82-1.88-1.82-1.88-1.82-1.88,1.82-1.88,1.82-1.88-1.82-1.88-1.82-1.88,1.82-1.88,1.82-1.88-1.82-1.88-1.82-1.86,1.82-1.88,1.82-1.88-1.82-1.88-1.82-1.88,1.82-1.88,1.82-1.88-1.82-1.88-1.82-1.88,1.82-1.88,1.82-1.88-1.82-1.86-1.8-1.88,1.8-1.88,1.82-1.88-1.82L0,183.61h0s0-3.65,0-3.65h0s1.88-1.82,1.88-1.82l1.88-1.82,1.88,1.82,1.88,1.82,1.86-1.82,1.88-1.82,1.88,1.82,1.88,1.82,1.88-1.82,1.88-1.82,1.88,1.82,1.88,1.82,1.88-1.82,1.88-1.82,1.88,1.82,1.86,1.82,1.88-1.82,1.88-1.82,1.88,1.82,1.88,1.82,1.88-1.82,1.88-1.82,1.88,1.82,1.88,1.82,1.88-1.82,1.88-1.82,1.88,1.82,1.88,1.82,1.88-1.82,1.86-1.82,1.88,1.82,1.88,1.82,1.88-1.82,1.88-1.82,1.88,1.82,1.88,1.82,1.88-1.82,1.88-1.82,1.88,1.82,1.88,1.82,1.86-1.82,1.88-1.82,1.88,1.82,1.88,1.82,1.88-1.82,1.88-1.82,1.88,1.82ZM56.25,212.75l-1.87-1.82-1.88-1.82-1.87,1.82-1.87,1.82-1.87-1.82-1.87-1.82-1.88,1.82-1.87,1.82-1.87-1.82-1.87-1.82-1.87,1.82-1.88,1.82,1.88,1.82,1.87,1.82-1.87,1.82-1.88,1.82,1.88,1.82,1.87,1.82-1.87,1.82-1.88,1.82,1.88,1.82,1.87,1.82,1.87-1.82,1.87-1.82,1.87,1.82,1.88,1.82,1.87-1.82,1.87-1.82,1.87,1.82,1.87,1.82,1.88-1.82,1.87-1.82-1.87-1.82-1.88-1.82,1.88-1.82,1.87-1.82-1.87-1.82-1.88-1.82,1.88-1.82,1.87-1.82ZM46.88,221.85l-1.87,1.82-1.88-1.82-1.87-1.82,1.87-1.82,1.88-1.82,1.87,1.82,1.87,1.82-1.87,1.82ZM86.25,212.75l-1.87-1.82-1.88-1.82-1.87,1.82-1.87,1.82-1.87-1.82-1.87-1.82-1.88,1.82-1.87,1.82-1.87-1.82-1.87-1.82-1.87,1.82-1.88,1.82,1.88,1.82,1.87,1.82-1.87,1.82-1.88,1.82,1.88,1.82,1.87,1.82-1.87,1.82-1.88,1.82,1.88,1.82,1.87,1.82,1.87-1.82,1.87-1.82,1.87,1.82,1.88,1.82,1.87-1.82,1.87-1.82,1.87,1.82,1.87,1.82,1.88-1.82,1.87-1.82-1.87-1.82-1.88-1.82,1.88-1.82,1.87-1.82-1.87-1.82-1.88-1.82,1.88-1.82,1.87-1.82ZM76.88,221.85l-1.87,1.82-1.88-1.82-1.87-1.82,1.87-1.82,1.88-1.82,1.87,1.82,1.87,1.82-1.87,1.82ZM41.25,271l-1.87,1.82,1.87,1.82,1.87,1.82-1.87,1.82-1.87,1.82-1.87,1.82-1.87,1.82-1.88,1.82-1.87,1.82-1.87,1.82-1.87,1.82-1.87,1.82-1.88,1.82-1.87,1.82-1.87-1.82-1.87-1.82-1.87-1.82-1.88-1.82-1.87-1.82-1.87-1.82-1.87-1.82-1.87-1.82-1.88-1.82-1.87-1.82-1.87-1.82,1.87-1.82,1.87-1.82-1.87-1.82-1.87-1.82,1.87-1.82,1.87-1.82,1.88,1.82,1.87,1.82,1.87-1.82,1.87-1.82,1.87,1.82,1.88,1.82,1.87,1.82,1.87,1.82,1.87,1.82,1.87-1.82,1.88-1.82,1.87-1.82,1.87-1.82,1.87-1.82,1.87,1.82,1.88,1.82,1.87-1.82,1.87-1.82,1.87,1.82,1.87,1.82-1.87,1.82ZM88.13,298.3l1.87,1.82v3.64l-1.87,1.82-1.87,1.82-1.87-1.82-1.88-1.82-1.87,1.82-1.87,1.82-1.87-1.82-1.87-1.82-1.88,1.82-1.87,1.82-1.87-1.82-1.87-1.82-1.87,1.82-1.88,1.82-1.87-1.82-1.87-1.82-1.87,1.82-1.87,1.82-1.87-1.82-1.88-1.82-1.87,1.82-1.87,1.82-1.87-1.82-1.87-1.82-1.88,1.82-1.87,1.82-1.87-1.82-1.87-1.82-1.87,1.82-1.88,1.82-1.87-1.82-1.87-1.82-1.87,1.82-1.87,1.82-1.88-1.82-1.87-1.82-1.87,1.82-1.87,1.82-1.87-1.82-1.88-1.82-1.87,1.82-1.87,1.82-1.87-1.82-1.87-1.82-1.88,1.82-1.87,1.82-1.87-1.82-1.87-1.82v-3.64l1.87-1.82,1.87-1.82,1.87,1.82,1.88,1.82,1.87-1.82,1.87-1.82,1.87,1.82,1.87,1.82,1.88-1.82,1.87-1.82,1.87,1.82,1.87,1.82,1.87-1.82,1.88-1.82,1.87,1.82,1.87,1.82,1.87-1.82,1.87-1.82,1.88,1.82,1.87,1.82,1.87-1.82,1.87-1.82,1.87,1.82,1.88,1.82,1.87-1.82,1.87-1.82,1.87,1.82,1.87,1.82,1.88-1.82,1.87-1.82,1.87,1.82,1.87,1.82,1.87-1.82,1.87-1.82,1.88,1.82,1.87,1.82,1.87-1.82,1.87-1.82,1.87,1.82,1.88,1.82,1.87-1.82,1.87-1.82,1.87,1.82,1.87,1.82,1.88-1.82,1.87-1.82,1.87,1.82ZM86.25,332.89l-1.88-1.82-1.88-1.82-1.88,1.82-1.88,1.82-1.88-1.82-1.86-1.8-1.88,1.8-1.88,1.82-1.88,1.82-1.88,1.82-1.88-1.82-1.88-1.82-1.88-1.82-1.88-1.82-1.88,1.82-1.88,1.82-1.86-1.82-1.88-1.82-1.88,1.82-1.88,1.82,1.88,1.82,1.88,1.82-1.88,1.82-1.88,1.82,1.88,1.82h.02l1.86,1.8,1.88,1.82,1.86,1.82-1.86,1.82-1.88,1.82-1.88,1.82-1.88,1.82,1.88,1.82,1.88,1.82-1.88,1.82-1.88,1.82,1.88,1.82,1.88,1.82,1.88-1.82,1.86-1.82,1.88,1.82,1.88,1.82,1.88-1.82,1.88-1.82,1.88-1.82,1.88-1.82,1.88,1.82,1.88,1.82,1.88,1.82,1.88,1.82,1.86-1.82,1.88-1.82,1.88,1.82,1.88,1.82,1.88-1.82,1.88-1.82-1.88-1.82-1.88-1.82,1.88-1.82,1.88-1.82-1.88-1.82-1.88-1.82-1.88-1.82-1.88-1.82,1.88-1.82,1.88-1.82,1.88-1.8h.02l1.86-1.82-1.88-1.82-1.88-1.82,1.88-1.82,1.88-1.82ZM76.88,342h-.02l-1.86,1.8-1.88,1.82-1.88,1.82,1.88,1.82,1.88,1.82,1.86,1.82,1.88,1.82-1.88,1.82-1.86,1.82-1.88-1.82-1.88-1.82-1.88-1.82-1.88-1.82-1.88,1.82-1.88,1.82-1.88,1.82-1.88,1.82-1.88-1.82-1.88-1.82,1.88-1.82,1.88-1.82,1.88-1.82,1.88-1.82-1.88-1.82-1.88-1.82-1.86-1.8h-.02l-1.88-1.82,1.88-1.82,1.88-1.82,1.88,1.82,1.88,1.82,1.88,1.82h.02l1.86,1.8,1.88-1.8h.02l1.86-1.82,1.88-1.82,1.88-1.82,1.86,1.82,1.88,1.82-1.86,1.82ZM86.25,271l-1.87,1.82,1.87,1.82,1.87,1.82-1.87,1.82-1.87,1.82-1.88,1.82-1.87,1.82-1.87,1.82-1.87,1.82-1.87,1.82-1.88,1.82-1.87,1.82-1.87,1.82-1.87,1.82-1.87-1.82-1.88-1.82-1.87-1.82-1.87-1.82-1.87-1.82-1.87-1.82-1.87-1.82-1.88-1.82-1.87-1.82-1.87-1.82-1.87-1.82,1.87-1.82,1.87-1.82-1.87-1.82-1.87-1.82,1.87-1.82,1.87-1.82,1.87,1.82,1.88,1.82,1.87-1.82,1.87-1.82,1.87,1.82,1.87,1.82,1.87,1.82,1.88,1.82,1.87,1.82,1.87-1.82,1.87-1.82,1.87-1.82,1.88-1.82,1.87-1.82,1.87,1.82,1.87,1.82,1.87-1.82,1.88-1.82,1.87,1.82,1.87,1.82-1.87,1.82ZM41.25,332.89l-1.88-1.82-1.88-1.82-1.88,1.82-1.88,1.82-1.88-1.82-1.88-1.82-1.86,1.82-1.88,1.82-1.88,1.82-1.88,1.82-1.88-1.82-1.88-1.82-1.88-1.82-1.88-1.82-1.88,1.82-1.88,1.82-1.88-1.82-1.86-1.8-1.88,1.8-1.88,1.82,1.88,1.82,1.88,1.82-1.88,1.82-1.88,1.82,1.88,1.82h.02l1.86,1.8,1.86,1.82,1.88,1.82-1.88,1.82-1.86,1.82-1.88,1.82-1.88,1.82,1.88,1.82,1.88,1.82-1.88,1.82-1.88,1.82,1.88,1.82,1.88,1.82,1.86-1.82,1.88-1.82,1.88,1.82,1.88,1.82,1.88-1.82,1.88-1.82,1.88-1.82,1.88-1.82,1.88,1.82,1.88,1.82,1.88,1.82,1.86,1.82,1.88-1.82,1.88-1.82,1.88,1.82,1.88,1.82,1.88-1.82,1.88-1.82-1.88-1.82-1.88-1.82,1.88-1.82,1.88-1.82-1.88-1.82-1.88-1.82-1.88-1.82-1.88-1.82,1.88-1.82,1.88-1.82,1.88-1.8h.02l1.86-1.82-1.88-1.82-1.88-1.82,1.88-1.82,1.88-1.82ZM31.89,342h-.02l-1.88,1.8-1.86,1.82-1.88,1.82,1.88,1.82,1.86,1.82,1.88,1.82,1.88,1.82-1.88,1.82-1.88,1.82-1.86-1.8v-.02l-1.88-1.82-1.88-1.82-1.88-1.82-1.88,1.82-1.88,1.82-1.88,1.82-1.88,1.82-1.88-1.82-1.88-1.82,1.88-1.82,1.88-1.82,1.88-1.82,1.88-1.82-1.88-1.82-1.88-1.82-1.86-1.8h-.02l-1.88-1.82,1.88-1.82,1.88-1.82,1.88,1.82,1.88,1.82,1.88,1.82h.02l1.86,1.8,1.88-1.8h.02l1.86-1.82,1.88-1.8v-.02l1.86-1.82,1.88,1.82,1.88,1.82-1.86,1.82ZM88.13,254.62l1.87,1.82v3.64l-1.87,1.82-1.87,1.82-1.87-1.82-1.88-1.82-1.87,1.82-1.87,1.82-1.87-1.82-1.87-1.82-1.88,1.82-1.87,1.82-1.87-1.82-1.87-1.82-1.87,1.82-1.88,1.82-1.87-1.82-1.87-1.82-1.87,1.82-1.87,1.82-1.87-1.82-1.88-1.82-1.87,1.82-1.87,1.82-1.87-1.82-1.87-1.82-1.88,1.82-1.87,1.82-1.87-1.82-1.87-1.82-1.87,1.82-1.88,1.82-1.87-1.82-1.87-1.82-1.87,1.82-1.87,1.82-1.88-1.82-1.87-1.82-1.87,1.82-1.87,1.82-1.87-1.82-1.88-1.82-1.87,1.82-1.87,1.82-1.87-1.82-1.87-1.82-1.88,1.82-1.87,1.82-1.87-1.82-1.87-1.82v-3.64l1.87-1.82,1.87-1.82,1.87,1.82,1.88,1.82,1.87-1.82,1.87-1.82,1.87,1.82,1.87,1.82,1.88-1.82,1.87-1.82,1.87,1.82,1.87,1.82,1.87-1.82,1.88-1.82,1.87,1.82,1.87,1.82,1.87-1.82,1.87-1.82,1.88,1.82,1.87,1.82,1.87-1.82,1.87-1.82,1.87,1.82,1.88,1.82,1.87-1.82,1.87-1.82,1.87,1.82,1.87,1.82,1.88-1.82,1.87-1.82,1.87,1.82,1.87,1.82,1.87-1.82,1.87-1.82,1.88,1.82,1.87,1.82,1.87-1.82,1.87-1.82,1.87,1.82,1.88,1.82,1.87-1.82,1.87-1.82,1.87,1.82,1.87,1.82,1.88-1.82,1.87-1.82,1.87,1.82ZM88.13,316.51l1.87,1.82v3.64l-1.87,1.82-1.87,1.82-1.87-1.82-1.88-1.82-1.87,1.82-1.87,1.82-1.87-1.82-1.87-1.82-1.88,1.82-1.87,1.82-1.87-1.82-1.87-1.82-1.87,1.82-1.88,1.82-1.87-1.82-1.87-1.82-1.87,1.82-1.87,1.82-1.87-1.82-1.88-1.82-1.87,1.82-1.87,1.82-1.87-1.82-1.87-1.82-1.88,1.82-1.87,1.82-1.87-1.82-1.87-1.82-1.87,1.82-1.88,1.82-1.87-1.82-1.87-1.82-1.87,1.82-1.87,1.82-1.88-1.82-1.87-1.82-1.87,1.82-1.87,1.82-1.87-1.82-1.88-1.82-1.87,1.82-1.87,1.82-1.87-1.82-1.87-1.82-1.88,1.82-1.87,1.82-1.87-1.82-1.87-1.82v-3.64l1.87-1.82,1.87-1.82,1.87,1.82,1.88,1.82,1.87-1.82,1.87-1.82,1.87,1.82,1.87,1.82,1.88-1.82,1.87-1.82,1.87,1.82,1.87,1.82,1.87-1.82,1.88-1.82,1.87,1.82,1.87,1.82,1.87-1.82,1.87-1.82,1.88,1.82,1.87,1.82,1.87-1.82,1.87-1.82,1.87,1.82,1.88,1.82,1.87-1.82,1.87-1.82,1.87,1.82,1.87,1.82,1.88-1.82,1.87-1.82,1.87,1.82,1.87,1.82,1.87-1.82,1.87-1.82,1.88,1.82,1.87,1.82,1.87-1.82,1.87-1.82,1.87,1.82,1.88,1.82,1.87-1.82,1.87-1.82,1.87,1.82,1.87,1.82,1.88-1.82,1.87-1.82,1.87,1.82ZM26.25,212.75l-1.88-1.82-1.87-1.82-1.87,1.82-1.87,1.82-1.87-1.82-1.88-1.82-1.87,1.82-1.87,1.82-1.87-1.82-1.87-1.82-1.88,1.82-1.87,1.82,1.87,1.82,1.88,1.82-1.88,1.82-1.87,1.82,1.87,1.82,1.88,1.82-1.88,1.82-1.87,1.82,1.87,1.82,1.88,1.82,1.87-1.82,1.87-1.82,1.87,1.82,1.87,1.82,1.88-1.82,1.87-1.82,1.87,1.82,1.87,1.82,1.87-1.82,1.88-1.82-1.88-1.82-1.87-1.82,1.87-1.82,1.88-1.82-1.88-1.82-1.87-1.82,1.87-1.82,1.88-1.82ZM16.88,221.85l-1.88,1.82-1.87-1.82-1.87-1.82,1.87-1.82,1.87-1.82,1.88,1.82,1.87,1.82-1.87,1.82ZM88.13,236.41l1.87,1.82v3.64l-1.87,1.82-1.87,1.82-1.87-1.82-1.88-1.82-1.87,1.82-1.87,1.82-1.87-1.82-1.87-1.82-1.88,1.82-1.87,1.82-1.87-1.82-1.87-1.82-1.87,1.82-1.88,1.82-1.87-1.82-1.87-1.82-1.87,1.82-1.87,1.82-1.87-1.82-1.88-1.82-1.87,1.82-1.87,1.82-1.87-1.82-1.87-1.82-1.88,1.82-1.87,1.82-1.87-1.82-1.87-1.82-1.87,1.82-1.88,1.82-1.87-1.82-1.87-1.82-1.87,1.82-1.87,1.82-1.88-1.82-1.87-1.82-1.87,1.82-1.87,1.82-1.87-1.82-1.88-1.82-1.87,1.82-1.87,1.82-1.87-1.82-1.87-1.82-1.88,1.82-1.87,1.82-1.87-1.82-1.87-1.82v-3.64l1.87-1.82,1.87-1.82,1.87,1.82,1.88,1.82,1.87-1.82,1.87-1.82,1.87,1.82,1.87,1.82,1.88-1.82,1.87-1.82,1.87,1.82,1.87,1.82,1.87-1.82,1.88-1.82,1.87,1.82,1.87,1.82,1.87-1.82,1.87-1.82,1.88,1.82,1.87,1.82,1.87-1.82,1.87-1.82,1.87,1.82,1.88,1.82,1.87-1.82,1.87-1.82,1.87,1.82,1.87,1.82,1.88-1.82,1.87-1.82,1.87,1.82,1.87,1.82,1.87-1.82,1.87-1.82,1.88,1.82,1.87,1.82,1.87-1.82,1.87-1.82,1.87,1.82,1.88,1.82,1.87-1.82,1.87-1.82,1.87,1.82,1.87,1.82,1.88-1.82,1.87-1.82,1.87,1.82ZM88.14,389.33l1.86,1.8v3.65l-1.87,1.82-1.88,1.82-1.88-1.82-1.88-1.82-1.88,1.82-1.88,1.82-1.88-1.82-1.86-1.8-1.88,1.8-1.88,1.82-1.88-1.82-1.88-1.82-1.88,1.82-1.88,1.82-1.88-1.82-1.88-1.82-1.88,1.82-1.88,1.82-1.86-1.82-1.88-1.82-1.88,1.82-1.88,1.82-1.88-1.82-1.88-1.82-1.88,1.82-1.88,1.82-1.88-1.82-1.88-1.82-1.88,1.82-1.88,1.82-1.88-1.82-1.88-1.82-1.86,1.82-1.88,1.82-1.88-1.82-1.88-1.82-1.88,1.82-1.88,1.82-1.88-1.82-1.88-1.82-1.88,1.82-1.88,1.82-1.88-1.82-1.86-1.8-1.88,1.8-1.88,1.82-1.88-1.82L0,394.78h0s0-3.65,0-3.65h0s1.88-1.8,1.88-1.8h.02l1.86-1.82,1.88,1.82h.02l1.86,1.8,1.86-1.8h.02l1.86-1.82,1.88,1.82h.02l1.86,1.8,1.88-1.8h.02l1.86-1.82,1.88,1.82h.02l1.86,1.8,1.88-1.8h.02l1.86-1.82,1.88,1.82,1.86,1.8,1.88-1.8h.02l1.86-1.82,1.88,1.82h.02l1.86,1.8,1.88-1.8h.02l1.86-1.82,1.88,1.82h.02l1.86,1.8,1.88-1.8h.02l1.86-1.82,1.88,1.82h.02l1.86,1.8,1.88-1.8,1.86-1.82,1.88,1.82h.02l1.86,1.8,1.88-1.8h.02l1.86-1.82,1.88,1.82h.02l1.86,1.8,1.88-1.8h.02l1.86-1.82,1.88,1.82h.02l1.86,1.8,1.86-1.8h.02l1.86-1.82,1.88,1.82h.02l1.86,1.8,1.88-1.8h.02l1.86-1.82,1.88,1.82h.02ZM88.13,371.11l1.87,1.82v3.65l-1.87,1.82-1.88,1.82-1.88-1.82-1.88-1.82-1.88,1.82-1.88,1.82-1.88-1.82-1.86-1.8-1.88,1.8-1.88,1.82-1.88-1.82-1.88-1.82-1.88,1.82-1.88,1.82-1.88-1.82-1.88-1.82-1.88,1.82-1.88,1.82-1.86-1.82-1.88-1.82-1.88,1.82-1.88,1.82-1.88-1.82-1.88-1.82-1.88,1.82-1.88,1.82-1.88-1.82-1.88-1.82-1.88,1.82-1.88,1.82-1.88-1.82-1.88-1.82-1.86,1.82-1.88,1.82-1.88-1.82-1.88-1.82-1.88,1.82-1.88,1.82-1.88-1.82-1.88-1.82-1.88,1.82-1.88,1.82-1.88-1.82-1.86-1.8-1.88,1.8-1.88,1.82-1.88-1.82L0,376.58h0s0-3.65,0-3.65h0s1.88-1.82,1.88-1.82l1.88-1.82,1.88,1.82,1.88,1.82,1.86-1.82,1.88-1.82,1.88,1.82,1.88,1.82,1.88-1.82,1.88-1.82,1.88,1.82,1.88,1.82,1.88-1.82,1.88-1.82,1.88,1.82,1.86,1.82,1.88-1.82,1.88-1.82,1.88,1.82,1.88,1.82,1.88-1.82,1.88-1.82,1.88,1.82,1.88,1.82,1.88-1.82,1.88-1.82,1.88,1.82,1.88,1.82,1.88-1.82,1.86-1.82,1.88,1.82,1.88,1.82,1.88-1.82,1.88-1.82,1.88,1.82,1.88,1.82,1.88-1.82,1.88-1.82,1.88,1.82,1.88,1.82,1.86-1.82,1.88-1.82,1.88,1.82,1.88,1.82,1.88-1.82,1.88-1.82,1.88,1.82Z"/>
</svg>